HIERARCHY
ROOT Hips
{
	OFFSET 0.000000 0.000000 0.000000
	CHANNELS 6 Xposition Yposition Zposition Xrotation Yrotation Zrotation
	JOINT LeftUpLeg_virtual
	{
		OFFSET 0.000000 0.000000 0.000000
		CHANNELS 3 Xrotation Yrotation Zrotation
		JOINT LeftUpLeg
		{
			OFFSET 13.026900 -6.336304 -1.092800
			CHANNELS 3 Xrotation Yrotation Zrotation
			JOINT LeftLeg
			{
				OFFSET 0.524474 -46.096886 9.782700
				CHANNELS 3 Xrotation Yrotation Zrotation
				JOINT LeftFoot
				{
					OFFSET -0.524474 -53.427422 -12.948200
					CHANNELS 3 Xrotation Yrotation Zrotation
					JOINT LeftToeBase
					{
						OFFSET 0.192200 -14.009700 16.364100
						CHANNELS 3 Xrotation Yrotation Zrotation
						JOINT LeftToe_End
						{
							OFFSET -1.784700 -0.561700 9.474800
							CHANNELS 3 Xrotation Yrotation Zrotation
							End Site
							{
								OFFSET 0 0 0
							}
						}
					}
				}
			}
		}
	}
	JOINT RightUpLeg_virtual
	{
		OFFSET 0.000000 0.000000 0.000000
		CHANNELS 3 Xrotation Yrotation Zrotation
		JOINT RightUpLeg
		{
			OFFSET -12.883000 -6.336304 -1.092800
			CHANNELS 3 Xrotation Yrotation Zrotation
			JOINT RightLeg
			{
				OFFSET -0.524587 -46.096825 9.782800
				CHANNELS 3 Xrotation Yrotation Zrotation
				JOINT RightFoot
				{
					OFFSET 0.524587 -53.427383 -12.948300
					CHANNELS 3 Xrotation Yrotation Zrotation
					JOINT RightToeBase
					{
						OFFSET -0.192200 -14.009700 16.364100
						CHANNELS 3 Xrotation Yrotation Zrotation
						JOINT RightToe_End
						{
							OFFSET 1.784700 -0.561700 9.474800
							CHANNELS 3 Xrotation Yrotation Zrotation
							End Site
							{
								OFFSET 0 0 0
							}
						}
					}
				}
			}
		}
	}
	JOINT Spine_virtual
	{
		OFFSET 0.000000 0.000000 0.000000
		CHANNELS 3 Xrotation Yrotation Zrotation
		JOINT Spine
		{
			OFFSET 0.072000 7.257294 -0.789700
			CHANNELS 3 Xrotation Yrotation Zrotation
			JOINT Spine1
			{
				OFFSET 0.000000 12.508769 -0.658067
				CHANNELS 3 Xrotation Yrotation Zrotation
				JOINT Spine1_split
				{
					OFFSET 0.000000 12.508769 -0.658067
					CHANNELS 3 Xrotation Yrotation Zrotation
					JOINT Spine2
					{
						OFFSET 0.000000 12.508769 -0.658067
						CHANNELS 3 Xrotation Yrotation Zrotation
						JOINT Neck_virtual
						{
							OFFSET 0.000000 0.000000 0.000000
							CHANNELS 3 Xrotation Yrotation Zrotation
							JOINT Neck
							{
								OFFSET 0.000000 14.033295 7.520400
								CHANNELS 3 Xrotation Yrotation Zrotation
								JOINT Head
								{
									OFFSET 0.000000 8.198502 5.703100
									CHANNELS 3 Xrotation Yrotation Zrotation
									JOINT HeadTop_End
									{
										OFFSET 0.000000 17.760803 13.332701
										CHANNELS 3 Xrotation Yrotation Zrotation
										End Site
										{
											OFFSET 0 0 0
										}
									}
								}
							}
						}
						JOINT LeftShoulder_virtual
						{
							OFFSET 0.000000 0.000000 0.000000
							CHANNELS 3 Xrotation Yrotation Zrotation
							JOINT LeftShoulder
							{
								OFFSET 6.292450 5.785301 -0.669000
								CHANNELS 3 Xrotation Yrotation Zrotation
								JOINT LeftShoulder_split
								{
									OFFSET 6.292450 5.785301 -0.669000
									CHANNELS 3 Xrotation Yrotation Zrotation
									JOINT LeftArm
									{
										OFFSET 13.907140 -6.093903 1.965100
										CHANNELS 3 Xrotation Yrotation Zrotation
										JOINT LeftForeArm
										{
											OFFSET 34.140198 0.000000 0.000000
											CHANNELS 3 Xrotation Yrotation Zrotation
											JOINT LeftHand
											{
												OFFSET 40.960209 0.000000 0.000000
												CHANNELS 3 Xrotation Yrotation Zrotation
												End Site
												{
													OFFSET 0 0 0
												}
											}
										}
									}
								}
							}
						}
						JOINT RightShoulder_virtual
						{
							OFFSET 0.000000 0.000000 0.000000
							CHANNELS 3 Xrotation Yrotation Zrotation
							JOINT RightShoulder
							{
								OFFSET -6.292450 5.785301 -0.669000
								CHANNELS 3 Xrotation Yrotation Zrotation
								JOINT RightShoulder_split
								{
									OFFSET -6.292450 5.785301 -0.669000
									CHANNELS 3 Xrotation Yrotation Zrotation
									JOINT RightArm
									{
										OFFSET -13.907140 -6.093903 1.965100
										CHANNELS 3 Xrotation Yrotation Zrotation
										JOINT RightForeArm
										{
											OFFSET -34.140198 0.000000 0.000000
											CHANNELS 3 Xrotation Yrotation Zrotation
											JOINT RightHand
											{
												OFFSET -40.960209 0.000000 0.000000
												CHANNELS 3 Xrotation Yrotation Zrotation
												End Site
												{
													OFFSET 0 0 0
												}
											}
										}
									}
								}
							}
						}
					}
				}
			}
		}
	}
}
MOTION
Frames: 5
Frame Time: 0.03333333
7.106170 119.544983 -15.714169 0.000000 0.000000 0.000000 -2.342176 8.263659 2.403957 -6.852036 16.516878 7.382836 8.879369 6.132491 2.142225 -0.428895 8.322740 -16.217321 1.939102 -3.236715 -0.222566 0.000000 0.000000 0.000000 -2.065425 8.906912 2.203591 -2.463144 -10.871131 -1.515811 9.562549 -1.413977 -1.337624 -8.810513 -13.853255 11.870132 3.755689 3.159346 -6.525164 0.000000 0.000000 0.000000 -4.163573 11.643135 2.363306 2.069485 2.145383 -1.722946 -0.645323 -1.741609 -0.099675 0.136612 -0.165812 -0.058830 0.000000 0.000000 0.000000 0.072479 1.461272 -0.974752 5.041145 5.103971 1.763350 -7.806897 -19.383491 -29.915843 0.000000 0.000000 0.000000 -0.623697 -0.813722 -0.940780 1.176076 -10.276389 -14.673350 0.821363 -3.244351 -3.441800 -1.970962 1.046970 -59.529948 0.285758 -17.053785 -1.453167 0.000000 0.000000 0.000000 -0.499084 -0.402793 -0.514596 3.178659 -3.427377 16.100214 0.262010 2.041635 0.060939 1.260395 5.414587 64.476262 -2.781403 14.268282 2.946563 0.000000 0.000000 0.000000 
7.098368 119.584763 -15.960949 0.000000 0.000000 0.000000 -2.433047 8.242548 2.432849 -7.036934 16.448045 7.444126 8.916918 6.132353 2.142728 -0.237815 8.170982 -16.260225 1.951295 -3.220228 -0.262293 0.000000 0.000000 0.000000 -2.118458 8.956471 2.236209 -2.293064 -10.786684 -1.486507 9.429609 -1.435829 -1.349997 -8.737852 -13.927905 11.926778 3.900062 3.132809 -6.510767 0.000000 0.000000 0.000000 -4.229598 11.779417 2.426169 2.183249 2.244330 -1.647401 -0.561684 -1.660922 -0.106437 0.145248 -0.146382 -0.027884 0.000000 0.000000 0.000000 0.024563 1.512911 -0.998409 5.112952 5.055070 1.760128 -8.059960 -19.507471 -29.791383 0.000000 0.000000 0.000000 -0.599258 -0.751279 -0.975123 1.147233 -10.189652 -14.738307 0.756754 -2.765051 -3.669312 -1.079133 1.741328 -59.447433 0.378312 -16.192037 -1.389835 0.000000 0.000000 0.000000 -0.468323 -0.306414 -0.561828 3.126199 -3.167788 16.043957 0.058946 2.540844 0.011979 0.391889 5.973483 64.446530 -2.736755 14.952442 2.834583 0.000000 0.000000 0.000000 
7.027505 119.565948 -16.287853 0.000000 0.000000 0.000000 -2.591999 8.559217 2.557608 -7.381975 16.291526 7.456473 9.172587 6.143035 2.114911 -0.131629 7.871929 -16.057529 1.993011 -3.198887 -0.264819 0.000000 0.000000 0.000000 -2.218041 9.431396 2.352022 -2.085268 -10.603289 -1.464778 9.615420 -1.527128 -1.352059 -8.842638 -14.206504 11.945531 3.899289 3.096654 -6.546332 0.000000 0.000000 0.000000 -4.474926 12.162111 2.570932 2.444158 2.371348 -1.482578 -0.504269 -1.544135 -0.163054 0.162579 -0.164827 -0.011391 0.000000 0.000000 0.000000 -0.045321 1.607817 -1.057989 5.164617 5.068248 1.836155 -8.488313 -20.080994 -30.094859 0.000000 0.000000 0.000000 -0.568160 -0.657233 -1.033758 1.148870 -10.003703 -14.692107 0.587163 -2.542631 -3.726096 0.137663 3.038874 -59.613502 0.378644 -15.073657 -1.345951 0.000000 0.000000 0.000000 -0.454797 -0.178764 -0.661405 3.068827 -2.709863 15.960002 0.186813 2.573107 0.115452 -0.908731 7.062489 64.332008 -2.620956 15.855915 2.664204 0.000000 0.000000 0.000000 
6.896119 119.491776 -16.638378 0.000000 0.000000 0.000000 -2.781444 9.145114 2.752144 -7.808500 16.087764 7.412939 9.626294 6.148092 2.069538 -0.158381 7.465093 -15.652463 2.118180 -3.172214 -0.233289 0.000000 0.000000 0.000000 -2.380989 10.197737 2.538209 -1.847561 -10.338916 -1.445495 10.002301 -1.675747 -1.352155 -9.171453 -14.664570 11.888023 3.820985 3.054014 -6.629277 0.000000 0.000000 0.000000 -4.863554 12.731828 2.773748 2.789486 2.501525 -1.271068 -0.487044 -1.419738 -0.257176 0.176962 -0.208309 -0.022422 0.000000 0.000000 0.000000 -0.124490 1.722283 -1.138087 5.191288 5.163976 1.951792 -9.069130 -21.032116 -30.832751 0.000000 0.000000 0.000000 -0.536083 -0.555434 -1.103863 1.191374 -9.733621 -14.550388 0.451979 -2.578477 -3.698182 1.476159 4.748635 -59.943530 0.282173 -14.015560 -1.309745 0.000000 0.000000 0.000000 -0.463446 -0.050525 -0.785240 3.015373 -2.118868 15.885733 0.574418 2.226502 0.364633 -2.340032 8.337698 64.172796 -2.445574 16.840289 2.468913 0.000000 0.000000 0.000000 
6.740780 119.372337 -17.028179 0.000000 0.000000 0.000000 -2.978629 9.865136 2.982754 -8.259314 15.870757 7.338533 10.216755 6.108147 2.017186 -0.296683 6.976092 -15.173419 2.346415 -3.136378 -0.162897 0.000000 0.000000 0.000000 -2.598976 11.075009 2.765035 -1.616561 -10.019631 -1.410665 10.504688 -1.874940 -1.352308 -9.678089 -15.265690 11.708766 3.788452 3.009435 -6.752848 0.000000 0.000000 0.000000 -5.340851 13.413501 3.018779 3.156370 2.606444 -1.058722 -0.509206 -1.307417 -0.372486 0.192775 -0.256551 -0.029458 0.000000 0.000000 0.000000 -0.205603 1.839611 -1.214769 5.201338 5.340536 2.069547 -9.778444 -22.221476 -31.997370 0.000000 0.000000 0.000000 -0.520902 -0.455888 -1.181507 1.270095 -9.394791 -14.375979 0.353575 -2.676527 -3.602568 2.804024 6.720158 -60.403693 0.123444 -13.117645 -1.271933 0.000000 0.000000 0.000000 -0.496248 0.057967 -0.906816 2.992641 -1.451277 15.845303 1.069885 1.859534 0.573251 -3.694461 9.508977 64.029007 -2.257475 17.889828 2.307390 0.000000 0.000000 0.000000 
